<svg width="20" height="20" viewBox="0 0 20 20" fill="none" xmlns="http://www.w3.org/2000/svg">
<path d="M17.6873 17.2068C17.5438 16.168 17.1422 14.3996 16.7991 14.098C16.7788 14.0801 12.3271 12.0729 12.3271 12.0729C12.8452 11.4341 13.1979 10.6873 13.3457 10.1409C13.7318 9.88166 13.8895 9.03791 13.7791 8.45816L17.108 8.12978C17.2332 8.11749 17.3312 8.01656 17.3399 7.89105C17.3488 7.76554 17.2657 7.65198 17.1434 7.62244L13.8727 6.82872C13.8524 6.24197 13.6982 4.57206 12.6316 3.47848C11.9984 2.82923 11.1574 2.5 10.1321 2.5C9.10599 2.5 8.27368 2.82975 7.65841 3.48002C6.62819 4.56916 6.51975 6.22865 6.51599 6.82565L2.9108 7.62124C2.78683 7.64857 2.70127 7.76212 2.70896 7.88883C2.71664 8.01554 2.81534 8.11783 2.94171 8.12995L6.55561 8.47831C6.46459 9.104 6.66866 9.92213 7.00062 10.1455C7.10411 10.5306 7.37853 11.376 7.9453 12.1132C7.9453 12.1132 3.4178 14.0762 3.39526 14.0982C3.07644 14.4086 2.66644 16.3658 2.50472 17.1926C2.49004 17.2683 2.51002 17.3465 2.55886 17.4061C2.60786 17.4657 2.68095 17.5 2.75797 17.5H17.4316C17.5063 17.5 17.5771 17.4677 17.6261 17.4115C17.6751 17.3554 17.6973 17.2807 17.6873 17.2068ZM14.1746 15.5309H14.8334V17.1088H5.4675V15.5309H6.18812C6.2689 15.5309 6.3343 15.4653 6.3343 15.3847V13.3716L7.34215 12.936V15.3847C7.34215 15.4655 7.40756 15.5309 7.48833 15.5309H12.8748C12.9555 15.5309 13.0209 15.4653 13.0209 15.3847V12.9331L14.0288 13.3668V15.3847C14.0286 15.4655 14.0939 15.5309 14.1746 15.5309ZM8.50267 12.4291C8.99243 12.867 9.54178 13.0893 10.1401 13.0893C10.6914 13.0893 11.2465 12.8468 11.7614 12.3854C11.7733 12.3931 12.101 12.5372 12.101 12.5372C11.9916 13.1559 11.4356 13.6288 10.7665 13.6288H9.46869C8.78085 13.6288 8.24858 13.1904 8.15824 12.5833C8.1579 12.5835 8.49123 12.4365 8.50267 12.4291ZM7.47245 9.90779C7.45093 9.81796 7.38297 9.74641 7.29417 9.72046C7.27948 9.71602 7.22416 9.67128 7.16678 9.52698C7.02419 9.16837 7.15739 8.4001 7.17617 8.35536C8.31142 8.41974 12.0307 8.41803 13.1509 8.35041C13.1728 8.39566 13.3198 9.11134 13.1898 9.48378C13.1306 9.65403 13.0698 9.70936 13.0536 9.71533C12.9629 9.74129 12.8937 9.81455 12.8729 9.90642C12.7499 10.4489 11.7549 12.7973 10.1401 12.7973C8.3968 12.7971 7.54502 10.21 7.47245 9.90779ZM6.90004 15.7442C6.62597 15.7442 6.40312 15.9672 6.40312 16.2413C6.40312 16.5154 6.62597 16.7384 6.90004 16.7384C7.17412 16.7384 7.39697 16.5154 7.39697 16.2413C7.39697 15.9672 7.17412 15.7442 6.90004 15.7442ZM13.5245 15.7442C13.2506 15.7442 13.0278 15.9672 13.0278 16.2413C13.0278 16.5154 13.2506 16.7384 13.5245 16.7384C13.7986 16.7384 14.0215 16.5154 14.0215 16.2413C14.0215 15.9672 13.7986 15.7442 13.5245 15.7442Z" fill="#043E44"/>
</svg>
