<svg width="20" height="20" viewBox="0 0 20 20" fill="none" xmlns="http://www.w3.org/2000/svg">
<g clip-path="url(#clip0_7744_164607)">
<path d="M8.5578 9.51505C8.97558 10.097 9.34859 10.7982 9.61717 11.5293L10.9302 11.6338C11.333 10.276 11.8702 9.30616 12.4521 8.54521C13.3175 8.87346 14.4216 8.85854 15.0632 8.30648C16.1673 7.35155 16.0629 4.45694 15.7794 2.78582C15.7346 2.48741 15.3467 2.39788 15.1677 2.63662C13.6308 4.60615 10.9302 4.87472 10.9749 6.76965C10.9899 7.1725 11.0645 7.42616 11.348 7.72457C12.4819 6.27726 13.8994 5.7998 13.974 5.76996C13.9889 5.76996 14.0038 5.75504 14.0038 5.75504C13.8248 5.8744 13.1832 6.42647 12.4969 7.26203C11.6613 8.14235 10.8705 9.2614 10.2886 11.037C10.0349 10.4103 9.72161 9.81347 9.36352 9.29124C8.64732 8.0379 7.70732 7.18743 7.51335 7.0233C7.52827 7.0233 7.52827 7.0233 7.54319 7.03822C7.60287 7.06806 8.79653 7.51568 9.73653 8.78394C9.99018 8.53029 10.0648 8.3214 10.0797 7.97822C10.1692 6.35187 7.85653 6.05345 6.60319 4.32265C6.45398 4.11376 6.12573 4.18837 6.06604 4.44202C5.78255 5.85948 5.6035 8.33632 6.52858 9.1868C7.02097 9.63442 7.84161 9.6941 8.5578 9.51505Z" fill="#043E44"/>
<path d="M14.317 13.1408C14.0037 13.2452 13.4814 13.3795 12.9144 13.4989C12.7056 13.8271 12.3325 14.0957 11.7656 14.1852C11.6313 14.2151 11.4821 14.2151 11.3179 14.2151C10.9151 14.2151 10.4525 14.1703 9.93031 14.1106C9.90047 14.1106 9.8557 14.1106 9.82586 14.0957C9.7065 14.0808 9.58713 13.9913 9.58713 13.857C9.57221 13.6928 9.7065 13.5735 9.87062 13.5884C9.91539 13.5884 9.94523 13.6033 9.98999 13.6033C10.6614 13.6779 11.2881 13.7376 11.6909 13.6779C12.437 13.5586 12.6459 13.1109 12.616 12.723C12.5862 12.4097 12.3624 12.1113 11.9894 12.1262C11.4671 12.156 10.8554 12.0963 10.2586 12.0516C9.57221 11.9919 8.87094 11.9621 8.37856 12.0068C7.82649 12.0665 6.69252 12.4544 5.69283 13.1109C5.20045 13.4392 4.64838 13.8122 4.32013 14.0509C4.156 14.1703 4.11124 14.409 4.24553 14.5732L5.64807 16.4681C5.76744 16.6322 5.99125 16.6621 6.15537 16.5427L6.69252 16.1398C6.8268 16.0503 6.99093 16.0205 7.14014 16.0652C8.10998 16.3935 9.13951 16.6173 9.81094 16.6621C11.2881 16.7665 14.1529 15.0656 14.9884 14.5135C15.7941 13.9614 15.2272 12.8125 14.317 13.1408Z" fill="#043E44"/>
</g>
<defs>
<clipPath id="clip0_7744_164607">
<rect width="20" height="20" fill="white"/>
</clipPath>
</defs>
</svg>
