<svg width="71" height="24" viewBox="0 0 71 24" fill="none" xmlns="http://www.w3.org/2000/svg">
<path d="M23.2946 12.9051C25.2476 12.9051 26.8397 14.3901 26.8397 16.4367C26.8397 18.4698 25.2476 19.9683 23.2946 19.9683C21.3416 19.9683 19.7495 18.4698 19.7495 16.4367C19.7495 14.3892 21.3416 12.9051 23.2946 12.9051ZM23.2946 18.5769C24.3647 18.5769 25.2881 17.6949 25.2872 16.4367C25.2872 15.1659 24.3647 14.2965 23.2946 14.2965C22.2245 14.2965 21.3011 15.1659 21.3011 16.4367C21.3011 17.694 22.2245 18.5769 23.2946 18.5769ZM15.5627 12.9051C17.5157 12.9051 19.1069 14.3901 19.1078 16.4367C19.1078 18.4698 17.5157 19.9683 15.5627 19.9683C13.6097 19.9683 12.0176 18.4698 12.0176 16.4367C12.0176 14.3892 13.6097 12.9051 15.5627 12.9051ZM15.5627 18.5769C16.6328 18.5769 17.5553 17.6949 17.5553 16.4367C17.5553 15.1659 16.6328 14.2965 15.5627 14.2965C14.4926 14.2965 13.5692 15.1659 13.5692 16.4367C13.5692 17.694 14.4926 18.5769 15.5627 18.5769ZM6.36287 13.9896H6.36197H11.4065C11.4605 14.2569 11.4866 14.5782 11.4866 14.9256C11.4866 16.0497 11.1788 17.4411 10.1888 18.4311C9.22577 19.4346 7.99547 19.9692 6.36377 19.9692C3.34067 19.9692 0.799072 17.5077 0.799072 14.4846C0.799072 11.4606 3.34067 9 6.36377 9C8.03507 9 9.22577 9.6561 10.1222 10.512L9.06557 11.5686C8.42297 10.9656 7.55357 10.4976 6.36287 10.4976C4.15607 10.4976 2.43077 12.2778 2.43077 14.4846C2.43077 16.6914 4.15607 18.4707 6.36287 18.4707C7.79477 18.4707 8.61107 17.8947 9.13217 17.3745C9.56057 16.9461 9.84137 16.3305 9.94847 15.4881H6.36287V13.9896ZM43.9829 15.1533L44.1431 15.5547L39.4208 17.5077C39.7817 18.216 40.3424 18.5778 41.1326 18.5778C41.9219 18.5778 42.47 18.1908 42.8714 17.6022L44.0756 18.405C43.6877 18.9801 42.7526 19.9701 41.1335 19.9701C39.1274 19.9701 37.6289 18.4176 37.6289 16.4385C37.6289 14.3388 39.14 12.9069 40.9598 12.9069C42.7922 12.9069 43.6886 14.3649 43.9829 15.1533ZM39.1679 16.3305L42.3251 15.0192C42.1505 14.5782 41.6294 14.2704 41.0138 14.2704C40.2245 14.2704 39.1274 14.9652 39.1679 16.3305ZM35.3285 19.755V9.3744H36.881V19.755H35.3285ZM32.7869 13.6953H32.786V13.1211H34.2575V19.4625C34.2575 22.0707 32.7194 23.1408 30.8996 23.1408C29.1878 23.1408 28.1582 21.9906 27.7703 21.0528L29.1212 20.4921C29.3624 21.0672 29.951 21.7494 30.9005 21.7494C32.0651 21.7494 32.7869 21.0267 32.7869 19.6758V19.1673H32.7329C32.3864 19.5957 31.7168 19.9701 30.8744 19.9701C29.1095 19.9701 27.4904 18.4311 27.4904 16.4511C27.4904 14.4594 29.1086 12.9069 30.8744 12.9069C31.7168 12.9069 32.3846 13.2804 32.7329 13.6953H32.7869ZM31.0076 18.5769C32.0642 18.5769 32.894 17.6814 32.894 16.4493C32.894 15.2046 32.0642 14.2956 31.0076 14.2956C29.9375 14.2956 29.0411 15.2046 29.0411 16.4493C29.0411 17.6805 29.9375 18.5769 31.0076 18.5769ZM51.2518 9.3744C52.9692 9.3744 54.6571 10.6182 54.6571 12.5982C54.6571 14.5782 52.9692 15.822 51.2518 15.822H49.0886V19.7541H47.5398V9.3744H51.2518ZM51.2919 14.3775C52.4505 14.3775 53.1083 13.4028 53.1083 12.5991C53.1083 11.7783 52.4505 10.8198 51.2919 10.8198H49.0886V14.3775H51.2919ZM60.8671 12.8871C62.6426 12.8871 64.0179 13.9149 64.0196 15.7581V19.7379H62.5239V18.9369H62.4699C62.1099 19.4832 61.5356 19.9512 60.4932 19.9512C59.1318 19.9512 57.9168 19.0566 57.9168 17.6679C57.9168 16.146 59.4255 15.3306 60.9072 15.3306C61.6428 15.3306 62.2433 15.5718 62.5239 15.732V15.624C62.5108 14.769 61.6959 14.2893 60.8949 14.2893C60.3206 14.2893 59.7724 14.4765 59.4795 15.0507L58.1033 14.4765C58.5836 13.3812 59.7446 12.8871 60.8671 12.8871ZM60.6798 18.5751C61.574 18.5751 62.4012 17.8938 62.5231 16.9326C62.1091 16.7319 61.7884 16.5852 61.1068 16.5852C60.3459 16.5852 59.4648 16.893 59.4648 17.694C59.4648 18.3213 60.1725 18.5751 60.6798 18.5751ZM69.4662 13.1139H71.1885L66.9282 22.9023H65.3123L66.8881 19.4031L64.1243 13.1139H65.7934L67.6367 17.6139H67.6908L69.4662 13.1139ZM55.5121 19.755V9.3744H57.0609V19.755H55.5121ZM1.68917 6.696H1.07627V5.0274H1.56317C1.99427 4.6557 2.20487 4.0212 2.19587 3.1212V0.65791H5.52227V5.0274H6.07847V6.6969H5.46737V5.6403H1.68827V6.6969H1.68917V6.696ZM2.83757 3.1203C2.84747 3.9078 2.68907 4.5441 2.36507 5.0265H4.88327V1.26901H2.83757V3.1203ZM11.0717 4.9959C10.5812 5.499 9.97277 5.751 9.24467 5.751C8.51657 5.751 7.90727 5.499 7.41767 4.995C6.92807 4.4928 6.68327 3.8772 6.68327 3.1491C6.68327 2.4201 6.92717 1.8054 7.41767 1.30231C7.90637 0.79831 8.51567 0.546311 9.24467 0.546311C9.96827 0.546311 10.5758 0.800111 11.0681 1.30591C11.5595 1.8099 11.8052 2.4255 11.8052 3.15C11.8061 3.8772 11.5613 4.4928 11.0717 4.995V4.9959ZM7.89197 4.5783C8.26097 4.9518 8.71187 5.1381 9.24557 5.1381C9.75514 5.14849 10.2458 4.9455 10.5992 4.5783C10.9673 4.2048 11.1527 3.7278 11.1527 3.1473C11.1527 2.5677 10.9673 2.0916 10.5992 1.7181C10.2456 1.35107 9.75506 1.14817 9.24557 1.15831C8.71187 1.15831 8.26187 1.34461 7.89197 1.7181C7.52297 2.0916 7.33937 2.5686 7.33937 3.1482C7.33937 3.7278 7.52297 4.2048 7.89197 4.5783ZM15.0281 5.7501C14.2955 5.7501 13.6808 5.5017 13.184 5.0058C12.6872 4.5099 12.4397 3.8898 12.4397 3.1482C12.4397 2.4057 12.6863 1.7865 13.184 1.29061C13.6799 0.79471 14.2946 0.54541 15.0281 0.54541C15.7796 0.54541 16.3898 0.81541 16.8578 1.35901L16.4123 1.7901C16.0739 1.36711 15.6122 1.15741 15.0281 1.15741C14.4845 1.15741 14.0264 1.34101 13.6538 1.7064C13.2803 2.0736 13.094 2.5524 13.094 3.1464C13.094 3.7404 13.2803 4.2219 13.6538 4.5864C14.0264 4.9536 14.4854 5.1372 15.0281 5.1372C15.6266 5.1372 16.1369 4.896 16.559 4.4145L17.0045 4.86C16.7711 5.13802 16.4784 5.36016 16.1477 5.5098C15.7968 5.67156 15.4144 5.75354 15.0281 5.7501ZM19.5929 5.6394H18.9521V1.26991H17.5607V0.65701H20.9843V1.26901H19.5929V5.6394ZM25.3799 0.65701L23.4944 4.86C23.2343 5.4531 22.8473 5.7501 22.3334 5.7501C22.1804 5.7501 22.0157 5.7141 21.8384 5.6385L22.0058 5.0472C22.1129 5.1075 22.2236 5.1372 22.3397 5.1372C22.4882 5.1372 22.6034 5.1093 22.6835 5.0499C22.7645 4.9914 22.8401 4.8861 22.9094 4.7331L23.0903 4.3362L21.4136 0.65521H22.1651L23.3963 3.5163H23.4233L24.6266 0.656111H25.3799V0.65701ZM26.1044 5.6394V0.65791H29.7089V5.6394H29.0681V1.26991H26.7443V5.6394H26.1044ZM30.8501 5.6394V0.65791H31.49V2.7936H33.9803V0.65791H34.6211V5.6394H33.9803V3.3912H31.49V5.6394H30.8501ZM39.8357 4.9959C39.3461 5.499 38.7368 5.751 38.0096 5.751C37.2815 5.751 36.6722 5.499 36.1844 4.995C35.6939 4.4928 35.45 3.8772 35.45 3.1491C35.45 2.4201 35.6939 1.8054 36.1844 1.30231C36.6731 0.79831 37.2815 0.546311 38.0096 0.546311C38.7332 0.546311 39.3407 0.800111 39.833 1.30591C40.3244 1.8099 40.5701 2.4255 40.5701 3.15C40.5701 3.8772 40.3253 4.4928 39.8357 4.995V4.9959ZM36.656 4.5783C37.025 4.9518 37.4759 5.1381 38.0096 5.1381C38.5191 5.14849 39.0098 4.9455 39.3632 4.5783C39.7322 4.2048 39.9167 3.7278 39.9167 3.1473C39.9167 2.5677 39.7313 2.0916 39.3632 1.7181C39.0096 1.35107 38.5191 1.14817 38.0096 1.15831C37.4759 1.15831 37.025 1.34461 36.656 1.7181C36.287 2.0916 36.1034 2.5686 36.1034 3.1482C36.1034 3.7278 36.2879 4.2048 36.656 4.5783ZM43.1873 5.6394V0.65791H44.9882C45.3779 0.65791 45.7154 0.78661 46.0007 1.04401C46.286 1.30231 46.4291 1.6254 46.4291 2.0151C46.4291 2.2518 46.367 2.4606 46.2437 2.6415C46.1217 2.82199 45.9514 2.96452 45.7523 3.0528V3.0798C45.998 3.1626 46.1996 3.3075 46.358 3.5109C46.5146 3.7152 46.5947 3.9519 46.5947 4.221C46.5947 4.6287 46.4444 4.968 46.1456 5.2362C45.8564 5.50146 45.4768 5.64603 45.0845 5.6403H43.1873V5.6394ZM43.8272 2.7936H44.99C45.2321 2.7936 45.4256 2.7144 45.5714 2.5533C45.7092 2.41274 45.7875 2.22456 45.7901 2.0277C45.7888 1.83289 45.7128 1.6461 45.5777 1.50571C45.4354 1.34787 45.2303 1.26147 45.0179 1.26991H43.8272V2.7936ZM43.8272 5.0274H45.1151C45.3431 5.03485 45.5626 4.94018 45.7136 4.7691C45.859 4.617 45.941 4.41524 45.9431 4.2048C45.9402 3.99445 45.8553 3.79358 45.7064 3.645C45.5465 3.47474 45.3206 3.38212 45.0872 3.3912H43.8272V5.0274Z" fill="white"/>
</svg>
