<svg width="20" height="20" viewBox="0 0 20 20" fill="none" xmlns="http://www.w3.org/2000/svg">
<g clip-path="url(#clip0_7744_164656)">
<path fill-rule="evenodd" clip-rule="evenodd" d="M9.72429 0C11.6267 0.678631 12.3644 2.41655 11.9373 5.21375C10.0008 3.81184 9.10338 2.11824 9.72429 0ZM14.8225 2.47145C13.4193 2.62027 12.6212 3.65409 12.2384 5.29412C13.9992 4.84037 14.8605 3.89948 14.8225 2.47145Z" fill="#043E44"/>
<path fill-rule="evenodd" clip-rule="evenodd" d="M12.638 11.2253C13.1324 11.3306 13.7031 11.5024 14.1847 11.5983C14.5911 11.6805 14.5714 11.7121 14.6791 11.2463C15.2913 8.65084 13.9028 6.0448 11.5798 5.42622C9.76708 4.94464 7.92073 5.81613 6.9041 7.45478C6.63214 7.89421 6.60742 7.86576 7.0386 8.02699C7.5568 8.22089 8.0849 8.40004 8.60706 8.58761C8.97306 8.11383 9.48751 7.79707 10.0555 7.69577C10.6235 7.59447 11.2067 7.71545 11.6975 8.03641C12.1884 8.35736 12.5537 8.85664 12.7262 9.44212C12.8987 10.0276 12.8666 10.6598 12.636 11.2221L12.638 11.2253Z" fill="#043E44"/>
<path fill-rule="evenodd" clip-rule="evenodd" d="M8.50415 18.0002L13.0709 13.8399H13.077C13.5884 13.4394 14.0132 12.9374 14.3253 12.3649C14.5283 11.9888 14.5516 12.0165 14.1802 11.8842C13.693 11.712 13.0872 11.5357 12.5899 11.3625C12.2989 11.8892 11.8274 12.2903 11.2641 12.4904C10.7008 12.6906 10.0845 12.6759 9.53113 12.4492C8.97776 12.2226 8.52547 11.7995 8.25934 11.2596C7.99321 10.7197 7.93158 10.1002 8.08604 9.5176C8.14593 9.29058 8.23787 9.07345 8.35903 8.8729C7.8577 8.75708 7.34419 8.62486 6.85909 8.53261C6.29382 8.43012 6.30499 8.38092 6.1487 9.00307C5.90132 9.98273 5.96377 11.016 6.32731 11.958C6.56885 12.6294 6.55565 12.6499 7.19906 12.8805C7.79275 13.0916 8.49502 13.2464 8.9791 13.5129C8.49705 13.4996 7.80898 13.2905 7.22443 13.1798C6.56682 13.0547 6.74644 13.1265 6.9626 13.7281L8.50415 18.0002Z" fill="#043E44"/>
</g>
<defs>
<clipPath id="clip0_7744_164656">
<rect width="20" height="20" fill="white"/>
</clipPath>
</defs>
</svg>
