<svg width="190" height="55" viewBox="0 0 190 55" fill="none" xmlns="http://www.w3.org/2000/svg">
<path fill-rule="evenodd" clip-rule="evenodd" d="M10.5518 0C15.942 1.92279 18.0321 6.84689 16.8221 14.7723C11.3352 10.8002 8.79253 6.00169 10.5518 0ZM24.9966 7.00244C21.0208 7.4241 18.7598 10.3533 17.6752 15C22.6639 13.7144 25.1044 11.0485 24.9966 7.00244Z" fill="#209041"/>
<path fill-rule="evenodd" clip-rule="evenodd" d="M18.8071 31.8048C20.2081 32.1034 21.8249 32.5901 23.1894 32.8618C24.3411 33.0946 24.285 33.1842 24.5904 31.8645C26.3249 24.5106 22.3909 17.1268 15.809 15.3742C10.6729 14.0097 5.44159 16.4789 2.56113 21.1218C1.79059 22.3668 1.72054 22.2862 2.94221 22.743C4.41045 23.2924 5.90672 23.8 7.38617 24.3314C8.42319 22.9891 9.88079 22.0916 11.4901 21.8046C13.0994 21.5175 14.7518 21.8603 16.1425 22.7697C17.5332 23.6791 18.5684 25.0937 19.0571 26.7526C19.5458 28.4115 19.455 30.2027 18.8015 31.7958L18.8071 31.8048Z" fill="#ED6B06"/>
<path fill-rule="evenodd" clip-rule="evenodd" d="M7.0951 51L20.0344 39.2124H20.0516C21.5004 38.0777 22.704 36.6555 23.5883 35.0335C24.1634 33.9677 24.2295 34.0461 23.1772 33.6715C21.797 33.1836 20.0804 32.6841 18.6714 32.1933C17.847 33.6855 16.511 34.822 14.915 35.389C13.3189 35.9561 11.5727 35.9146 10.0049 35.2723C8.43698 34.6301 7.1555 33.4313 6.40146 31.9016C5.64742 30.3719 5.4728 28.6167 5.91044 26.966C6.08013 26.3228 6.34063 25.7076 6.68392 25.1394C5.26348 24.8112 3.80853 24.4366 2.43409 24.1752C0.832498 23.8848 0.864127 23.7454 0.421317 25.5082C-0.279607 28.2839 -0.102643 31.2116 0.927386 33.8806C1.61173 35.7827 1.57435 35.8408 3.39735 36.4942C5.07945 37.0925 7.06922 37.531 8.44078 38.286C7.07497 38.2483 5.12546 37.6559 3.46923 37.3422C1.60598 36.9879 2.11492 37.1912 2.72738 38.8959L7.0951 51Z" fill="#209041"/>
<path d="M31.1958 36C31.0624 36 30.9491 35.9533 30.8558 35.86C30.7624 35.7667 30.7158 35.6533 30.7158 35.52V22.5C30.7158 22.3533 30.7624 22.2333 30.8558 22.14C30.9491 22.0467 31.0624 22 31.1958 22H36.5558C37.5958 22 38.5024 22.1667 39.2758 22.5C40.0491 22.82 40.6491 23.3133 41.0758 23.98C41.5024 24.6333 41.7158 25.4533 41.7158 26.44C41.7158 27.44 41.5024 28.2667 41.0758 28.92C40.6491 29.56 40.0491 30.04 39.2758 30.36C38.5024 30.68 37.5958 30.84 36.5558 30.84H33.5758V35.52C33.5758 35.6533 33.5291 35.7667 33.4358 35.86C33.3558 35.9533 33.2424 36 33.0958 36H31.1958ZM33.5358 28.62H36.4558C37.2291 28.62 37.8224 28.44 38.2358 28.08C38.6491 27.7067 38.8558 27.16 38.8558 26.44C38.8558 25.7733 38.6624 25.24 38.2758 24.84C37.8891 24.4267 37.2824 24.22 36.4558 24.22H33.5358V28.62ZM50.2594 36C50.1127 36 49.9927 35.9533 49.8994 35.86C49.8194 35.7667 49.7794 35.6533 49.7794 35.52V32.46H47.7994V32.36C46.4527 32.36 45.4394 32.0533 44.7594 31.44C44.0927 30.8133 43.7594 29.9933 43.7594 28.98C43.7594 27.86 44.1127 27.02 44.8194 26.46C45.526 25.8867 46.546 25.6 47.8794 25.6H51.9594C52.0927 25.6 52.206 25.6467 52.2994 25.74C52.3927 25.8333 52.4394 25.9467 52.4394 26.08V35.52C52.4394 35.6533 52.3927 35.7667 52.2994 35.86C52.206 35.9533 52.0927 36 51.9594 36H50.2594ZM43.8594 36C43.7394 36 43.6394 35.96 43.5594 35.88C43.4794 35.8 43.4394 35.7067 43.4394 35.6C43.4394 35.56 43.446 35.5133 43.4594 35.46C43.4727 35.3933 43.506 35.3333 43.5594 35.28L45.7994 31.76L48.2394 32.08L46.0194 35.7C45.9794 35.78 45.9127 35.8533 45.8194 35.92C45.726 35.9733 45.626 36 45.5194 36H43.8594ZM47.8194 30.56H49.8194V27.5H47.9394C47.326 27.5 46.8727 27.6133 46.5794 27.84C46.286 28.0533 46.1394 28.4333 46.1394 28.98C46.1394 29.4467 46.2727 29.8267 46.5394 30.12C46.8194 30.4133 47.246 30.56 47.8194 30.56ZM54.7437 38.2C54.6104 38.2 54.4971 38.1533 54.4037 38.06C54.3104 37.9667 54.2637 37.8533 54.2637 37.72V34.36C54.2637 34.2267 54.3104 34.1133 54.4037 34.02C54.4971 33.9267 54.6104 33.88 54.7437 33.88H54.9037C55.2504 33.88 55.5304 33.7 55.7437 33.34C55.9704 32.9667 56.1371 32.4067 56.2437 31.66C56.3504 30.9 56.4037 29.94 56.4037 28.78V26.08C56.4037 25.9467 56.4504 25.8333 56.5437 25.74C56.6371 25.6467 56.7504 25.6 56.8837 25.6H64.0037C64.1504 25.6 64.2637 25.6467 64.3437 25.74C64.4371 25.8333 64.4837 25.9467 64.4837 26.08V33.86H65.3837C65.5304 33.86 65.6437 33.9067 65.7237 34C65.8171 34.0933 65.8637 34.2067 65.8637 34.34V37.72C65.8637 37.8533 65.8171 37.9667 65.7237 38.06C65.6437 38.1533 65.5304 38.2 65.3837 38.2H63.7237C63.5904 38.2 63.4771 38.1533 63.3837 38.06C63.2904 37.9667 63.2437 37.8533 63.2437 37.72V36H56.8837V37.72C56.8837 37.8533 56.8371 37.9667 56.7437 38.06C56.6504 38.1533 56.5371 38.2 56.4037 38.2H54.7437ZM57.9837 33.88L61.8637 33.86V27.72H58.9237V29.06C58.9237 30.26 58.8437 31.2533 58.6837 32.04C58.5237 32.8267 58.2904 33.44 57.9837 33.88ZM72.3023 36.2C71.2357 36.2 70.3357 36.0133 69.6023 35.64C68.8823 35.2667 68.329 34.74 67.9423 34.06C67.569 33.38 67.3557 32.5867 67.3023 31.68C67.289 31.44 67.2823 31.1467 67.2823 30.8C67.2823 30.4533 67.289 30.16 67.3023 29.92C67.3557 29 67.5757 28.2067 67.9623 27.54C68.3623 26.86 68.9223 26.3333 69.6423 25.96C70.3757 25.5867 71.2623 25.4 72.3023 25.4C73.3423 25.4 74.2223 25.5867 74.9423 25.96C75.6757 26.3333 76.2357 26.86 76.6223 27.54C77.0223 28.2067 77.249 29 77.3023 29.92C77.3157 30.16 77.3223 30.4533 77.3223 30.8C77.3223 31.1467 77.3157 31.44 77.3023 31.68C77.249 32.5867 77.029 33.38 76.6423 34.06C76.269 34.74 75.7157 35.2667 74.9823 35.64C74.2623 36.0133 73.369 36.2 72.3023 36.2ZM72.3023 34.22C73.009 34.22 73.5557 34 73.9423 33.56C74.329 33.1067 74.5423 32.4467 74.5823 31.58C74.5957 31.38 74.6023 31.12 74.6023 30.8C74.6023 30.48 74.5957 30.22 74.5823 30.02C74.5423 29.1667 74.329 28.5133 73.9423 28.06C73.5557 27.6067 73.009 27.38 72.3023 27.38C71.5957 27.38 71.049 27.6067 70.6623 28.06C70.2757 28.5133 70.0623 29.1667 70.0223 30.02C70.009 30.22 70.0023 30.48 70.0023 30.8C70.0023 31.12 70.009 31.38 70.0223 31.58C70.0623 32.4467 70.2757 33.1067 70.6623 33.56C71.049 34 71.5957 34.22 72.3023 34.22ZM79.9783 36C79.8449 36 79.7383 35.96 79.6583 35.88C79.5783 35.8 79.5383 35.7 79.5383 35.58V25.98C79.5383 25.8733 79.5783 25.7867 79.6583 25.72C79.7516 25.64 79.8449 25.6 79.9383 25.6H81.6183C81.8449 25.6 82.0183 25.7133 82.1383 25.94L85.2183 31.54L88.2983 25.94C88.4183 25.7133 88.5916 25.6 88.8183 25.6H90.4783C90.5983 25.6 90.6983 25.64 90.7783 25.72C90.8583 25.7867 90.8983 25.8733 90.8983 25.98V35.58C90.8983 35.7 90.8583 35.8 90.7783 35.88C90.6983 35.96 90.5916 36 90.4583 36H88.7383C88.6049 36 88.4983 35.96 88.4183 35.88C88.3516 35.8 88.3183 35.7 88.3183 35.58V28.32L89.1383 28.46L86.1783 33.92C86.1116 34.04 86.0316 34.1533 85.9383 34.26C85.8449 34.3533 85.7116 34.4 85.5383 34.4H84.8783C84.7183 34.4 84.5916 34.3533 84.4983 34.26C84.4049 34.1667 84.3249 34.0533 84.2583 33.92L81.3583 28.68L82.1183 28.56V35.58C82.1183 35.7 82.0783 35.8 81.9983 35.88C81.9183 35.96 81.8183 36 81.6983 36H79.9783Z" fill="#209041"/>
<path d="M30.152 50C30.072 50 30.008 49.976 29.96 49.928C29.912 49.88 29.888 49.816 29.888 49.736V43.988C29.888 43.924 29.912 43.872 29.96 43.832C30.016 43.784 30.072 43.76 30.128 43.76H30.74C30.868 43.76 30.968 43.824 31.04 43.952L33.08 47.768L35.132 43.952C35.204 43.824 35.304 43.76 35.432 43.76H36.032C36.096 43.76 36.152 43.784 36.2 43.832C36.248 43.872 36.272 43.924 36.272 43.988V49.736C36.272 49.816 36.248 49.88 36.2 49.928C36.152 49.976 36.092 50 36.02 50H35.432C35.352 50 35.288 49.976 35.24 49.928C35.192 49.88 35.168 49.816 35.168 49.736V44.948L35.588 44.996L33.632 48.692C33.592 48.772 33.544 48.844 33.488 48.908C33.432 48.972 33.348 49.004 33.236 49.004H32.924C32.82 49.004 32.74 48.972 32.684 48.908C32.628 48.844 32.576 48.772 32.528 48.692L30.632 45.176L31.004 45.14V49.736C31.004 49.816 30.98 49.88 30.932 49.928C30.884 49.976 30.82 50 30.74 50H30.152ZM40.5517 50.12C39.7277 50.12 39.0717 49.868 38.5837 49.364C38.0957 48.852 37.8277 48.156 37.7797 47.276C37.7717 47.172 37.7677 47.04 37.7677 46.88C37.7677 46.712 37.7717 46.576 37.7797 46.472C37.8117 45.904 37.9437 45.408 38.1757 44.984C38.4077 44.552 38.7237 44.22 39.1237 43.988C39.5317 43.756 40.0077 43.64 40.5517 43.64C41.1597 43.64 41.6677 43.768 42.0757 44.024C42.4917 44.28 42.8077 44.644 43.0237 45.116C43.2397 45.588 43.3477 46.14 43.3477 46.772V46.976C43.3477 47.064 43.3197 47.132 43.2637 47.18C43.2157 47.228 43.1517 47.252 43.0717 47.252H38.9197C38.9197 47.26 38.9197 47.276 38.9197 47.3C38.9197 47.324 38.9197 47.344 38.9197 47.36C38.9357 47.688 39.0077 47.996 39.1357 48.284C39.2637 48.564 39.4477 48.792 39.6877 48.968C39.9277 49.144 40.2157 49.232 40.5517 49.232C40.8397 49.232 41.0797 49.188 41.2717 49.1C41.4637 49.012 41.6197 48.916 41.7397 48.812C41.8597 48.7 41.9397 48.616 41.9797 48.56C42.0517 48.456 42.1077 48.396 42.1477 48.38C42.1877 48.356 42.2517 48.344 42.3397 48.344H42.9157C42.9957 48.344 43.0597 48.368 43.1077 48.416C43.1637 48.456 43.1877 48.516 43.1797 48.596C43.1717 48.716 43.1077 48.864 42.9877 49.04C42.8677 49.208 42.6957 49.376 42.4717 49.544C42.2477 49.712 41.9757 49.852 41.6557 49.964C41.3357 50.068 40.9677 50.12 40.5517 50.12ZM38.9197 46.424H42.2077V46.388C42.2077 46.028 42.1397 45.708 42.0037 45.428C41.8757 45.148 41.6877 44.928 41.4397 44.768C41.1917 44.6 40.8957 44.516 40.5517 44.516C40.2077 44.516 39.9117 44.6 39.6637 44.768C39.4237 44.928 39.2397 45.148 39.1117 45.428C38.9837 45.708 38.9197 46.028 38.9197 46.388V46.424ZM47.3025 50.12C46.7345 50.12 46.2425 50.012 45.8265 49.796C45.4185 49.572 45.1025 49.256 44.8785 48.848C44.6545 48.432 44.5345 47.936 44.5185 47.36C44.5105 47.24 44.5065 47.08 44.5065 46.88C44.5065 46.68 44.5105 46.52 44.5185 46.4C44.5345 45.824 44.6545 45.332 44.8785 44.924C45.1025 44.508 45.4185 44.192 45.8265 43.976C46.2425 43.752 46.7345 43.64 47.3025 43.64C47.7665 43.64 48.1625 43.704 48.4905 43.832C48.8265 43.96 49.1025 44.124 49.3185 44.324C49.5345 44.524 49.6945 44.74 49.7985 44.972C49.9105 45.204 49.9705 45.424 49.9785 45.632C49.9865 45.712 49.9625 45.776 49.9065 45.824C49.8505 45.872 49.7825 45.896 49.7025 45.896H49.1265C49.0465 45.896 48.9865 45.88 48.9465 45.848C48.9065 45.808 48.8665 45.744 48.8265 45.656C48.6825 45.264 48.4865 44.988 48.2385 44.828C47.9905 44.668 47.6825 44.588 47.3145 44.588C46.8345 44.588 46.4425 44.736 46.1385 45.032C45.8425 45.328 45.6825 45.804 45.6585 46.46C45.6505 46.748 45.6505 47.028 45.6585 47.3C45.6825 47.964 45.8425 48.444 46.1385 48.74C46.4425 49.028 46.8345 49.172 47.3145 49.172C47.6825 49.172 47.9905 49.092 48.2385 48.932C48.4865 48.772 48.6825 48.496 48.8265 48.104C48.8665 48.016 48.9065 47.956 48.9465 47.924C48.9865 47.884 49.0465 47.864 49.1265 47.864H49.7025C49.7825 47.864 49.8505 47.888 49.9065 47.936C49.9625 47.984 49.9865 48.048 49.9785 48.128C49.9705 48.296 49.9345 48.468 49.8705 48.644C49.8065 48.82 49.7025 49 49.5585 49.184C49.4225 49.36 49.2505 49.52 49.0425 49.664C48.8345 49.8 48.5825 49.912 48.2865 50C47.9985 50.08 47.6705 50.12 47.3025 50.12ZM53.3116 50C53.2316 50 53.1636 49.976 53.1076 49.928C53.0596 49.872 53.0356 49.804 53.0356 49.724V44.72H50.9476C50.8676 44.72 50.7996 44.696 50.7436 44.648C50.6956 44.592 50.6716 44.524 50.6716 44.444V44.036C50.6716 43.956 50.6956 43.892 50.7436 43.844C50.7996 43.788 50.8676 43.76 50.9476 43.76H56.2276C56.3076 43.76 56.3716 43.788 56.4196 43.844C56.4756 43.892 56.5036 43.956 56.5036 44.036V44.444C56.5036 44.524 56.4756 44.592 56.4196 44.648C56.3716 44.696 56.3076 44.72 56.2276 44.72H54.1396V49.724C54.1396 49.804 54.1156 49.872 54.0676 49.928C54.0196 49.976 53.9516 50 53.8636 50H53.3116ZM60.1003 50.12C59.4923 50.12 58.9843 50.004 58.5763 49.772C58.1683 49.54 57.8563 49.22 57.6403 48.812C57.4243 48.396 57.3043 47.924 57.2803 47.396C57.2723 47.26 57.2683 47.088 57.2683 46.88C57.2683 46.664 57.2723 46.492 57.2803 46.364C57.3043 45.828 57.4243 45.356 57.6403 44.948C57.8643 44.54 58.1803 44.22 58.5883 43.988C58.9963 43.756 59.5003 43.64 60.1003 43.64C60.7003 43.64 61.2043 43.756 61.6123 43.988C62.0203 44.22 62.3323 44.54 62.5483 44.948C62.7723 45.356 62.8963 45.828 62.9203 46.364C62.9283 46.492 62.9323 46.664 62.9323 46.88C62.9323 47.088 62.9283 47.26 62.9203 47.396C62.8963 47.924 62.7763 48.396 62.5603 48.812C62.3443 49.22 62.0323 49.54 61.6243 49.772C61.2163 50.004 60.7083 50.12 60.1003 50.12ZM60.1003 49.196C60.5963 49.196 60.9923 49.04 61.2883 48.728C61.5843 48.408 61.7443 47.944 61.7683 47.336C61.7763 47.216 61.7803 47.064 61.7803 46.88C61.7803 46.696 61.7763 46.544 61.7683 46.424C61.7443 45.816 61.5843 45.356 61.2883 45.044C60.9923 44.724 60.5963 44.564 60.1003 44.564C59.6043 44.564 59.2043 44.724 58.9003 45.044C58.6043 45.356 58.4483 45.816 58.4323 46.424C58.4243 46.544 58.4202 46.696 58.4202 46.88C58.4202 47.064 58.4243 47.216 58.4323 47.336C58.4483 47.944 58.6043 48.408 58.9003 48.728C59.2043 49.04 59.6043 49.196 60.1003 49.196ZM64.3509 50.9C64.2869 50.9 64.2349 50.876 64.1949 50.828C64.1629 50.78 64.1509 50.72 64.1589 50.648L64.4349 48.932C64.4509 48.836 64.4829 48.756 64.5309 48.692C64.5869 48.62 64.6669 48.584 64.7709 48.584H65.5749C65.6309 48.584 65.6749 48.604 65.7069 48.644C65.7469 48.684 65.7669 48.732 65.7669 48.788C65.7669 48.852 65.7509 48.916 65.7189 48.98L65.0949 50.624C65.0629 50.704 65.0189 50.768 64.9629 50.816C64.9149 50.872 64.8429 50.9 64.7469 50.9H64.3509ZM70.6406 50C70.5606 50 70.4926 49.976 70.4366 49.928C70.3886 49.872 70.3646 49.804 70.3646 49.724V44.036C70.3646 43.956 70.3886 43.892 70.4366 43.844C70.4926 43.788 70.5606 43.76 70.6406 43.76H74.2286C74.3086 43.76 74.3726 43.788 74.4206 43.844C74.4686 43.892 74.4926 43.956 74.4926 44.036V44.444C74.4926 44.524 74.4686 44.592 74.4206 44.648C74.3726 44.696 74.3086 44.72 74.2286 44.72H71.4806V49.724C71.4806 49.804 71.4566 49.872 71.4086 49.928C71.3606 49.976 71.2966 50 71.2166 50H70.6406ZM75.1608 51.32C75.0808 51.32 75.0128 51.292 74.9568 51.236C74.9088 51.188 74.8848 51.124 74.8848 51.044V49.316C74.8848 49.236 74.9088 49.172 74.9568 49.124C75.0128 49.068 75.0808 49.04 75.1608 49.04H75.2208C75.4368 49.032 75.6208 48.912 75.7728 48.68C75.9248 48.44 76.0408 48.068 76.1208 47.564C76.2008 47.052 76.2408 46.388 76.2408 45.572V44.036C76.2408 43.956 76.2648 43.892 76.3128 43.844C76.3688 43.788 76.4368 43.76 76.5168 43.76H80.3448C80.4248 43.76 80.4888 43.788 80.5368 43.844C80.5928 43.892 80.6208 43.956 80.6208 44.036V49.016H81.1848C81.2728 49.016 81.3408 49.044 81.3888 49.1C81.4368 49.148 81.4608 49.212 81.4608 49.292V51.044C81.4608 51.124 81.4368 51.188 81.3888 51.236C81.3408 51.292 81.2728 51.32 81.1848 51.32H80.6208C80.5408 51.32 80.4728 51.292 80.4168 51.236C80.3688 51.188 80.3448 51.124 80.3448 51.044V50H76.0008V51.044C76.0008 51.124 75.9728 51.188 75.9168 51.236C75.8688 51.292 75.8048 51.32 75.7248 51.32H75.1608ZM76.6488 49.04L79.5048 49.016V44.72H77.3328V45.704C77.3328 46.552 77.2728 47.248 77.1528 47.792C77.0328 48.328 76.8648 48.744 76.6488 49.04ZM85.2001 50.12C84.3761 50.12 83.7201 49.868 83.2321 49.364C82.7441 48.852 82.4761 48.156 82.4281 47.276C82.4201 47.172 82.4161 47.04 82.4161 46.88C82.4161 46.712 82.4201 46.576 82.4281 46.472C82.4601 45.904 82.5921 45.408 82.8241 44.984C83.0561 44.552 83.3721 44.22 83.7721 43.988C84.1801 43.756 84.6561 43.64 85.2001 43.64C85.8081 43.64 86.3161 43.768 86.7241 44.024C87.1401 44.28 87.4561 44.644 87.6721 45.116C87.8881 45.588 87.9961 46.14 87.9961 46.772V46.976C87.9961 47.064 87.9681 47.132 87.9121 47.18C87.8641 47.228 87.8001 47.252 87.7201 47.252H83.5681C83.5681 47.26 83.5681 47.276 83.5681 47.3C83.5681 47.324 83.5681 47.344 83.5681 47.36C83.5841 47.688 83.6561 47.996 83.7841 48.284C83.9121 48.564 84.0961 48.792 84.3361 48.968C84.5761 49.144 84.8641 49.232 85.2001 49.232C85.4881 49.232 85.7281 49.188 85.9201 49.1C86.1121 49.012 86.2681 48.916 86.3881 48.812C86.5081 48.7 86.5881 48.616 86.6281 48.56C86.7001 48.456 86.7561 48.396 86.7961 48.38C86.8361 48.356 86.9001 48.344 86.9881 48.344H87.5641C87.6441 48.344 87.7081 48.368 87.7561 48.416C87.8121 48.456 87.8361 48.516 87.8281 48.596C87.8201 48.716 87.7561 48.864 87.6361 49.04C87.5161 49.208 87.3441 49.376 87.1201 49.544C86.8961 49.712 86.6241 49.852 86.3041 49.964C85.9841 50.068 85.6161 50.12 85.2001 50.12ZM83.5681 46.424H86.8561V46.388C86.8561 46.028 86.7881 45.708 86.6521 45.428C86.5241 45.148 86.3361 44.928 86.0881 44.768C85.8401 44.6 85.5441 44.516 85.2001 44.516C84.8561 44.516 84.5601 44.6 84.3121 44.768C84.0721 44.928 83.8881 45.148 83.7601 45.428C83.6321 45.708 83.5681 46.028 83.5681 46.388V46.424ZM92.6484 50C92.5684 50 92.5004 49.976 92.4444 49.928C92.3964 49.872 92.3724 49.804 92.3724 49.724V44.036C92.3724 43.956 92.3964 43.892 92.4444 43.844C92.5004 43.788 92.5684 43.76 92.6484 43.76H97.4124C97.4924 43.76 97.5564 43.788 97.6044 43.844C97.6604 43.892 97.6884 43.956 97.6884 44.036V49.724C97.6884 49.804 97.6604 49.872 97.6044 49.928C97.5564 49.976 97.4924 50 97.4124 50H96.8364C96.7564 50 96.6924 49.976 96.6444 49.928C96.5964 49.872 96.5724 49.804 96.5724 49.724V44.72H93.4884V49.724C93.4884 49.804 93.4644 49.872 93.4164 49.928C93.3684 49.976 93.3044 50 93.2244 50H92.6484ZM102.03 50.12C101.422 50.12 100.914 50.004 100.506 49.772C100.098 49.54 99.7859 49.22 99.5699 48.812C99.3539 48.396 99.2339 47.924 99.2099 47.396C99.2019 47.26 99.1979 47.088 99.1979 46.88C99.1979 46.664 99.2019 46.492 99.2099 46.364C99.2339 45.828 99.3539 45.356 99.5699 44.948C99.7939 44.54 100.11 44.22 100.518 43.988C100.926 43.756 101.43 43.64 102.03 43.64C102.63 43.64 103.134 43.756 103.542 43.988C103.95 44.22 104.262 44.54 104.478 44.948C104.702 45.356 104.826 45.828 104.85 46.364C104.858 46.492 104.862 46.664 104.862 46.88C104.862 47.088 104.858 47.26 104.85 47.396C104.826 47.924 104.706 48.396 104.49 48.812C104.274 49.22 103.962 49.54 103.554 49.772C103.146 50.004 102.638 50.12 102.03 50.12ZM102.03 49.196C102.526 49.196 102.922 49.04 103.218 48.728C103.514 48.408 103.674 47.944 103.698 47.336C103.706 47.216 103.71 47.064 103.71 46.88C103.71 46.696 103.706 46.544 103.698 46.424C103.674 45.816 103.514 45.356 103.218 45.044C102.922 44.724 102.526 44.564 102.03 44.564C101.534 44.564 101.134 44.724 100.83 45.044C100.534 45.356 100.378 45.816 100.362 46.424C100.354 46.544 100.35 46.696 100.35 46.88C100.35 47.064 100.354 47.216 100.362 47.336C100.378 47.944 100.534 48.408 100.83 48.728C101.134 49.04 101.534 49.196 102.03 49.196ZM106.065 50C105.985 50 105.917 49.972 105.861 49.916C105.805 49.86 105.777 49.792 105.777 49.712V49.268C105.777 49.1 105.861 49.012 106.029 49.004C106.277 48.996 106.485 48.88 106.653 48.656C106.821 48.424 106.949 48.06 107.037 47.564C107.125 47.06 107.169 46.396 107.169 45.572V44.036C107.169 43.956 107.193 43.892 107.241 43.844C107.297 43.788 107.365 43.76 107.445 43.76H111.261C111.341 43.76 111.405 43.788 111.453 43.844C111.509 43.892 111.537 43.956 111.537 44.036V49.724C111.537 49.804 111.509 49.872 111.453 49.928C111.405 49.976 111.341 50 111.261 50H110.685C110.605 50 110.541 49.976 110.493 49.928C110.445 49.872 110.421 49.804 110.421 49.724V44.72H108.261V45.704C108.261 46.472 108.217 47.132 108.129 47.684C108.041 48.228 107.905 48.672 107.721 49.016C107.545 49.352 107.317 49.6 107.037 49.76C106.765 49.92 106.441 50 106.065 50ZM115.81 50.12C114.986 50.12 114.33 49.868 113.842 49.364C113.354 48.852 113.086 48.156 113.038 47.276C113.03 47.172 113.026 47.04 113.026 46.88C113.026 46.712 113.03 46.576 113.038 46.472C113.07 45.904 113.202 45.408 113.434 44.984C113.666 44.552 113.982 44.22 114.382 43.988C114.79 43.756 115.266 43.64 115.81 43.64C116.418 43.64 116.926 43.768 117.334 44.024C117.75 44.28 118.066 44.644 118.282 45.116C118.498 45.588 118.605 46.14 118.605 46.772V46.976C118.605 47.064 118.578 47.132 118.522 47.18C118.474 47.228 118.41 47.252 118.33 47.252H114.178C114.178 47.26 114.178 47.276 114.178 47.3C114.178 47.324 114.178 47.344 114.178 47.36C114.194 47.688 114.266 47.996 114.394 48.284C114.522 48.564 114.706 48.792 114.946 48.968C115.186 49.144 115.474 49.232 115.81 49.232C116.098 49.232 116.338 49.188 116.53 49.1C116.722 49.012 116.878 48.916 116.998 48.812C117.118 48.7 117.198 48.616 117.238 48.56C117.31 48.456 117.366 48.396 117.406 48.38C117.446 48.356 117.51 48.344 117.598 48.344H118.174C118.254 48.344 118.318 48.368 118.366 48.416C118.422 48.456 118.446 48.516 118.438 48.596C118.43 48.716 118.366 48.864 118.246 49.04C118.126 49.208 117.954 49.376 117.73 49.544C117.506 49.712 117.234 49.852 116.914 49.964C116.594 50.068 116.226 50.12 115.81 50.12ZM114.178 46.424H117.466V46.388C117.466 46.028 117.398 45.708 117.262 45.428C117.134 45.148 116.946 44.928 116.698 44.768C116.45 44.6 116.154 44.516 115.81 44.516C115.466 44.516 115.17 44.6 114.922 44.768C114.682 44.928 114.498 45.148 114.37 45.428C114.242 45.708 114.178 46.028 114.178 46.388V46.424ZM122.212 50.12C121.74 50.12 121.34 50.064 121.012 49.952C120.692 49.832 120.432 49.684 120.232 49.508C120.04 49.324 119.9 49.136 119.812 48.944C119.724 48.744 119.676 48.56 119.668 48.392C119.668 48.32 119.692 48.264 119.74 48.224C119.788 48.176 119.844 48.152 119.908 48.152H120.472C120.544 48.152 120.604 48.172 120.652 48.212C120.7 48.244 120.736 48.304 120.76 48.392C120.856 48.696 121.04 48.908 121.312 49.028C121.584 49.148 121.916 49.208 122.308 49.208C122.564 49.208 122.8 49.176 123.016 49.112C123.232 49.04 123.4 48.928 123.52 48.776C123.648 48.624 123.712 48.436 123.712 48.212C123.712 47.884 123.616 47.636 123.424 47.468C123.24 47.3 122.952 47.216 122.56 47.216H121.9C121.82 47.216 121.756 47.192 121.708 47.144C121.66 47.096 121.636 47.032 121.636 46.952V46.628C121.636 46.556 121.66 46.496 121.708 46.448C121.756 46.392 121.82 46.364 121.9 46.364H122.488C122.816 46.364 123.068 46.3 123.244 46.172C123.42 46.044 123.508 45.84 123.508 45.56C123.508 45.392 123.468 45.232 123.388 45.08C123.308 44.928 123.172 44.804 122.98 44.708C122.796 44.604 122.54 44.552 122.212 44.552C121.748 44.552 121.42 44.632 121.228 44.792C121.044 44.944 120.912 45.172 120.832 45.476C120.8 45.564 120.76 45.624 120.712 45.656C120.672 45.688 120.612 45.704 120.532 45.704H119.992C119.92 45.704 119.86 45.684 119.812 45.644C119.764 45.604 119.74 45.548 119.74 45.476C119.748 45.236 119.8 45.008 119.896 44.792C120 44.576 120.152 44.38 120.352 44.204C120.56 44.028 120.816 43.892 121.12 43.796C121.432 43.692 121.796 43.64 122.212 43.64C122.812 43.64 123.284 43.732 123.628 43.916C123.98 44.1 124.228 44.328 124.372 44.6C124.524 44.864 124.6 45.128 124.6 45.392C124.6 45.704 124.548 45.964 124.444 46.172C124.348 46.38 124.156 46.556 123.868 46.7C124.228 46.836 124.476 47.04 124.612 47.312C124.748 47.584 124.82 47.9 124.828 48.26C124.836 48.676 124.724 49.02 124.492 49.292C124.268 49.564 123.96 49.772 123.568 49.916C123.176 50.052 122.724 50.12 122.212 50.12ZM126.457 50C126.377 50 126.309 49.976 126.253 49.928C126.205 49.872 126.181 49.804 126.181 49.724V44.036C126.181 43.956 126.205 43.892 126.253 43.844C126.309 43.788 126.377 43.76 126.457 43.76H127.033C127.113 43.76 127.177 43.788 127.225 43.844C127.273 43.892 127.297 43.956 127.297 44.036V46.34H130.573V44.036C130.573 43.956 130.597 43.892 130.645 43.844C130.701 43.788 130.769 43.76 130.849 43.76H131.413C131.493 43.76 131.557 43.788 131.605 43.844C131.661 43.892 131.689 43.956 131.689 44.036V49.724C131.689 49.804 131.661 49.872 131.605 49.928C131.557 49.976 131.493 50 131.413 50H130.849C130.769 50 130.701 49.976 130.645 49.928C130.597 49.872 130.573 49.804 130.573 49.724V47.3H127.297V49.724C127.297 49.804 127.273 49.872 127.225 49.928C127.177 49.976 127.113 50 127.033 50H126.457ZM136.049 50.12C135.441 50.12 134.933 50.004 134.525 49.772C134.117 49.54 133.805 49.22 133.589 48.812C133.373 48.396 133.253 47.924 133.229 47.396C133.221 47.26 133.217 47.088 133.217 46.88C133.217 46.664 133.221 46.492 133.229 46.364C133.253 45.828 133.373 45.356 133.589 44.948C133.813 44.54 134.129 44.22 134.537 43.988C134.945 43.756 135.449 43.64 136.049 43.64C136.649 43.64 137.153 43.756 137.561 43.988C137.969 44.22 138.281 44.54 138.497 44.948C138.721 45.356 138.845 45.828 138.869 46.364C138.877 46.492 138.881 46.664 138.881 46.88C138.881 47.088 138.877 47.26 138.869 47.396C138.845 47.924 138.725 48.396 138.509 48.812C138.293 49.22 137.981 49.54 137.573 49.772C137.165 50.004 136.657 50.12 136.049 50.12ZM136.049 49.196C136.545 49.196 136.941 49.04 137.237 48.728C137.533 48.408 137.693 47.944 137.717 47.336C137.725 47.216 137.729 47.064 137.729 46.88C137.729 46.696 137.725 46.544 137.717 46.424C137.693 45.816 137.533 45.356 137.237 45.044C136.941 44.724 136.545 44.564 136.049 44.564C135.553 44.564 135.153 44.724 134.849 45.044C134.553 45.356 134.397 45.816 134.381 46.424C134.373 46.544 134.369 46.696 134.369 46.88C134.369 47.064 134.373 47.216 134.381 47.336C134.397 47.944 134.553 48.408 134.849 48.728C135.153 49.04 135.553 49.196 136.049 49.196ZM142.868 50.12C142.044 50.12 141.388 49.868 140.9 49.364C140.412 48.852 140.144 48.156 140.096 47.276C140.088 47.172 140.084 47.04 140.084 46.88C140.084 46.712 140.088 46.576 140.096 46.472C140.128 45.904 140.26 45.408 140.492 44.984C140.724 44.552 141.04 44.22 141.44 43.988C141.848 43.756 142.324 43.64 142.868 43.64C143.476 43.64 143.984 43.768 144.392 44.024C144.808 44.28 145.124 44.644 145.34 45.116C145.556 45.588 145.664 46.14 145.664 46.772V46.976C145.664 47.064 145.636 47.132 145.58 47.18C145.532 47.228 145.468 47.252 145.388 47.252H141.236C141.236 47.26 141.236 47.276 141.236 47.3C141.236 47.324 141.236 47.344 141.236 47.36C141.252 47.688 141.324 47.996 141.452 48.284C141.58 48.564 141.764 48.792 142.004 48.968C142.244 49.144 142.532 49.232 142.868 49.232C143.156 49.232 143.396 49.188 143.588 49.1C143.78 49.012 143.936 48.916 144.056 48.812C144.176 48.7 144.256 48.616 144.296 48.56C144.368 48.456 144.424 48.396 144.464 48.38C144.504 48.356 144.568 48.344 144.656 48.344H145.232C145.312 48.344 145.376 48.368 145.424 48.416C145.48 48.456 145.504 48.516 145.496 48.596C145.488 48.716 145.424 48.864 145.304 49.04C145.184 49.208 145.012 49.376 144.788 49.544C144.564 49.712 144.292 49.852 143.972 49.964C143.652 50.068 143.284 50.12 142.868 50.12ZM141.236 46.424H144.524V46.388C144.524 46.028 144.456 45.708 144.32 45.428C144.192 45.148 144.004 44.928 143.756 44.768C143.508 44.6 143.212 44.516 142.868 44.516C142.524 44.516 142.228 44.6 141.98 44.768C141.74 44.928 141.556 45.148 141.428 45.428C141.3 45.708 141.236 46.028 141.236 46.388V46.424ZM150.316 50C150.236 50 150.168 49.976 150.112 49.928C150.064 49.872 150.04 49.804 150.04 49.724V44.036C150.04 43.956 150.064 43.892 150.112 43.844C150.168 43.788 150.236 43.76 150.316 43.76H152.812C153.564 43.76 154.128 43.912 154.504 44.216C154.888 44.52 155.08 44.928 155.08 45.44C155.08 45.8 155.012 46.072 154.876 46.256C154.74 46.44 154.548 46.596 154.3 46.724C154.604 46.852 154.832 47.06 154.984 47.348C155.144 47.628 155.224 47.92 155.224 48.224C155.224 48.8 155.02 49.24 154.612 49.544C154.204 49.848 153.636 50 152.908 50H150.316ZM151.144 49.124H152.812C153.196 49.124 153.504 49.052 153.736 48.908C153.976 48.756 154.096 48.528 154.096 48.224C154.096 47.904 153.988 47.672 153.772 47.528C153.556 47.376 153.236 47.3 152.812 47.3H151.144V49.124ZM151.144 46.412H152.74C153.124 46.412 153.428 46.328 153.652 46.16C153.884 45.992 154 45.756 154 45.452C154 45.14 153.884 44.928 153.652 44.816C153.428 44.696 153.124 44.636 152.74 44.636H151.144V46.412ZM157.043 50C156.963 50 156.895 49.976 156.839 49.928C156.791 49.872 156.767 49.804 156.767 49.724V44.036C156.767 43.956 156.791 43.892 156.839 43.844C156.895 43.788 156.963 43.76 157.043 43.76H157.607C157.687 43.76 157.751 43.788 157.799 43.844C157.855 43.892 157.883 43.956 157.883 44.036V46.34H158.975L160.595 43.94C160.635 43.884 160.679 43.84 160.727 43.808C160.775 43.776 160.839 43.76 160.919 43.76H161.543C161.615 43.76 161.675 43.776 161.723 43.808C161.771 43.84 161.795 43.888 161.795 43.952C161.795 43.968 161.787 43.992 161.771 44.024C161.763 44.048 161.751 44.072 161.735 44.096L159.935 46.748L161.975 49.652C162.015 49.7 162.035 49.752 162.035 49.808C162.035 49.872 162.011 49.92 161.963 49.952C161.923 49.984 161.867 50 161.795 50H161.063C160.991 50 160.931 49.984 160.883 49.952C160.835 49.92 160.791 49.876 160.751 49.82L158.987 47.312H157.883V49.724C157.883 49.804 157.855 49.872 157.799 49.928C157.751 49.976 157.687 50 157.607 50H157.043ZM163.489 52.28C163.401 52.28 163.333 52.252 163.285 52.196C163.237 52.148 163.213 52.084 163.213 52.004V51.596C163.213 51.516 163.237 51.448 163.285 51.392C163.333 51.344 163.401 51.32 163.489 51.32H163.801C163.985 51.32 164.133 51.284 164.245 51.212C164.357 51.14 164.457 51.016 164.545 50.84C164.641 50.672 164.753 50.44 164.881 50.144L167.485 43.964C167.509 43.9 167.541 43.852 167.581 43.82C167.629 43.78 167.697 43.76 167.785 43.76H168.312C168.385 43.76 168.445 43.784 168.493 43.832C168.541 43.88 168.565 43.936 168.565 44C168.565 44.032 168.561 44.064 168.553 44.096C168.545 44.12 168.529 44.16 168.505 44.216L166.225 49.616C166.105 49.904 165.973 50.204 165.829 50.516C165.693 50.828 165.537 51.116 165.361 51.38C165.193 51.652 164.993 51.868 164.761 52.028C164.529 52.196 164.257 52.28 163.945 52.28H163.489ZM165.157 49.82L162.733 44.216C162.693 44.12 162.673 44.052 162.673 44.012C162.681 43.94 162.709 43.88 162.757 43.832C162.805 43.784 162.861 43.76 162.925 43.76H163.489C163.577 43.76 163.641 43.78 163.681 43.82C163.729 43.86 163.765 43.908 163.789 43.964L165.781 48.728L165.157 49.82ZM172.295 50.12C171.727 50.12 171.235 50.012 170.819 49.796C170.411 49.572 170.095 49.256 169.871 48.848C169.647 48.432 169.527 47.936 169.511 47.36C169.503 47.24 169.499 47.08 169.499 46.88C169.499 46.68 169.503 46.52 169.511 46.4C169.527 45.824 169.647 45.332 169.871 44.924C170.095 44.508 170.411 44.192 170.819 43.976C171.235 43.752 171.727 43.64 172.295 43.64C172.759 43.64 173.155 43.704 173.483 43.832C173.819 43.96 174.095 44.124 174.311 44.324C174.527 44.524 174.687 44.74 174.791 44.972C174.903 45.204 174.963 45.424 174.971 45.632C174.979 45.712 174.955 45.776 174.899 45.824C174.843 45.872 174.775 45.896 174.695 45.896H174.119C174.039 45.896 173.979 45.88 173.939 45.848C173.899 45.808 173.859 45.744 173.819 45.656C173.675 45.264 173.479 44.988 173.231 44.828C172.983 44.668 172.675 44.588 172.307 44.588C171.827 44.588 171.435 44.736 171.131 45.032C170.835 45.328 170.675 45.804 170.651 46.46C170.643 46.748 170.643 47.028 170.651 47.3C170.675 47.964 170.835 48.444 171.131 48.74C171.435 49.028 171.827 49.172 172.307 49.172C172.675 49.172 172.983 49.092 173.231 48.932C173.479 48.772 173.675 48.496 173.819 48.104C173.859 48.016 173.899 47.956 173.939 47.924C173.979 47.884 174.039 47.864 174.119 47.864H174.695C174.775 47.864 174.843 47.888 174.899 47.936C174.955 47.984 174.979 48.048 174.971 48.128C174.963 48.296 174.927 48.468 174.863 48.644C174.799 48.82 174.695 49 174.551 49.184C174.415 49.36 174.243 49.52 174.035 49.664C173.827 49.8 173.575 49.912 173.279 50C172.991 50.08 172.663 50.12 172.295 50.12ZM176.672 50C176.592 50 176.524 49.976 176.468 49.928C176.42 49.872 176.396 49.804 176.396 49.724V44.036C176.396 43.956 176.42 43.892 176.468 43.844C176.524 43.788 176.592 43.76 176.672 43.76H177.248C177.328 43.76 177.392 43.788 177.44 43.844C177.488 43.892 177.512 43.956 177.512 44.036V46.34H180.788V44.036C180.788 43.956 180.812 43.892 180.86 43.844C180.916 43.788 180.984 43.76 181.064 43.76H181.628C181.708 43.76 181.772 43.788 181.82 43.844C181.876 43.892 181.904 43.956 181.904 44.036V49.724C181.904 49.804 181.876 49.872 181.82 49.928C181.772 49.976 181.708 50 181.628 50H181.064C180.984 50 180.916 49.976 180.86 49.928C180.812 49.872 180.788 49.804 180.788 49.724V47.3H177.512V49.724C177.512 49.804 177.488 49.872 177.44 49.928C177.392 49.976 177.328 50 177.248 50H176.672ZM186.264 50.12C185.656 50.12 185.148 50.004 184.74 49.772C184.332 49.54 184.02 49.22 183.804 48.812C183.588 48.396 183.468 47.924 183.444 47.396C183.436 47.26 183.432 47.088 183.432 46.88C183.432 46.664 183.436 46.492 183.444 46.364C183.468 45.828 183.588 45.356 183.804 44.948C184.028 44.54 184.344 44.22 184.752 43.988C185.16 43.756 185.664 43.64 186.264 43.64C186.864 43.64 187.368 43.756 187.776 43.988C188.184 44.22 188.496 44.54 188.712 44.948C188.936 45.356 189.06 45.828 189.084 46.364C189.092 46.492 189.096 46.664 189.096 46.88C189.096 47.088 189.092 47.26 189.084 47.396C189.06 47.924 188.94 48.396 188.724 48.812C188.508 49.22 188.196 49.54 187.788 49.772C187.38 50.004 186.872 50.12 186.264 50.12ZM186.264 49.196C186.76 49.196 187.156 49.04 187.452 48.728C187.748 48.408 187.908 47.944 187.932 47.336C187.94 47.216 187.944 47.064 187.944 46.88C187.944 46.696 187.94 46.544 187.932 46.424C187.908 45.816 187.748 45.356 187.452 45.044C187.156 44.724 186.76 44.564 186.264 44.564C185.768 44.564 185.368 44.724 185.064 45.044C184.768 45.356 184.612 45.816 184.596 46.424C184.588 46.544 184.584 46.696 184.584 46.88C184.584 47.064 184.588 47.216 184.596 47.336C184.612 47.944 184.768 48.408 185.064 48.728C185.368 49.04 185.768 49.196 186.264 49.196Z" fill="#209041"/>
</svg>
